<svg width="32" height="32" viewBox="0 0 32 32" fill="none" xmlns="http://www.w3.org/2000/svg">
<path d="M23.3506 20.4441C23.3506 21.962 23.0596 23.4651 22.4942 24.8674C21.9289 26.2698 21.1002 27.5439 20.0556 28.6171C19.011 29.6902 17.7709 30.5413 16.4061 31.1218C15.0414 31.7023 13.5787 32.0007 12.1017 32.0001V27.1117C13.2704 27.1234 14.4225 26.8264 15.4475 26.2492C16.4366 25.6932 17.258 24.8686 17.8219 23.8654C18.3869 22.8304 18.6836 21.6636 18.6836 20.4769C18.6836 19.2902 18.3869 18.1234 17.8219 17.0884C17.2588 16.086 16.4371 15.2631 15.4475 14.7104C14.407 14.1477 13.2489 13.8536 12.0731 13.8536C10.8973 13.8536 9.73916 14.1477 8.69863 14.7104C7.71252 15.2599 6.89379 16.0794 6.33321 17.078C5.93764 17.7795 5.67492 18.5516 5.55892 19.3535C3.85374 18.2273 2.45115 16.6789 1.47986 14.8505C0.508574 13.0221 -0.000283779 10.9723 1.18727e-07 8.88916H12.1017C13.5786 8.88841 15.0413 9.18672 16.406 9.76707C17.7708 10.3474 19.0109 11.1984 20.0555 12.2715C21.1002 13.3445 21.9288 14.6186 22.4942 16.0209C23.0596 17.4231 23.3506 18.9262 23.3506 20.4441Z" fill="black"/>
<path d="M23.3506 10.666V5.33301H31.9999L23.3506 10.666Z" fill="black"/>
<path d="M23.3505 2.6659V5.33179H14.7001C14.3591 5.33225 14.0213 5.26363 13.7062 5.12988C13.391 4.99612 13.1046 4.79984 12.8632 4.55226C12.6219 4.30468 12.4304 4.01065 12.2997 3.68697C12.1691 3.3633 12.1017 3.01633 12.1016 2.6659V2.48747e-07H20.752C21.0928 -0.00015102 21.4302 0.0686917 21.745 0.202598C22.0599 0.336504 22.346 0.532847 22.587 0.780413C22.828 1.02798 23.0191 1.32192 23.1496 1.64543C23.28 1.96895 23.3471 2.31571 23.3471 2.6659" fill="black"/>
<path d="M14.4247 22.951C13.8181 23.5851 13.0453 23.9049 12.1063 23.9103H12.0828C11.1326 23.9103 10.3519 23.5905 9.74086 22.951C9.20842 22.3879 8.89033 21.647 8.84444 20.8632C8.83324 20.7354 8.82764 20.6053 8.82764 20.4705C8.82764 19.4571 9.13317 18.6307 9.74422 17.9912C10.3553 17.3517 11.1359 17.0315 12.0861 17.0308C13.0363 17.0308 13.817 17.3509 14.428 17.9912C15.0391 18.6314 15.3446 19.4579 15.3446 20.4705C15.3424 21.4862 15.0357 22.313 14.4247 22.951Z" fill="#7F56D9"/>
</svg>
