<svg width="232" height="36" viewBox="0 0 232 36" fill="none" xmlns="http://www.w3.org/2000/svg">
<g clipPath="url(#clip0_1487_148626)">
<path d="M53.1289 28.3535C51.418 28.3535 49.9063 28.0488 48.5935 27.4394C47.2813 26.8301 46.2439 25.8516 45.4822 24.5039C44.7205 23.1445 44.3398 21.4043 44.3398 19.2832V9.5625H49.7185V19.1074C49.7185 21.9434 50.8555 23.3613 53.1289 23.3613C55.414 23.3613 56.5564 21.9434 56.5564 19.1074V9.5625H61.918V19.2832C61.918 21.4043 61.537 23.1445 60.7753 24.5039C60.0136 25.8516 58.9765 26.8301 57.664 27.4394C56.3515 28.0488 54.8398 28.3535 53.1289 28.3535Z" fill="white"/>
<path d="M27.1836 9.5625V11.8652C27.8399 10.9394 28.6543 10.2304 29.627 9.73827C30.5996 9.24609 31.625 9 32.7032 9C34.4024 9 35.9141 9.43359 37.2383 10.3008C38.5742 11.1679 39.6113 12.3398 40.3496 13.8164C41.0996 15.293 41.4746 16.9102 41.4746 18.6679C41.4746 20.4375 41.0996 22.0664 40.3496 23.5547C39.6113 25.0312 38.5802 26.2031 37.256 27.0703C35.9315 27.9375 34.4435 28.3711 32.7911 28.3711C31.6544 28.3711 30.6056 28.1191 29.6445 27.6152C28.6953 27.1113 27.9278 26.4434 27.3418 25.6113L27.4473 27.8086V33.996H22.0332V9.5625H27.1836ZM31.7714 23.3965C32.5565 23.3965 33.2774 23.2148 33.9335 22.8516C34.6016 22.4766 35.1347 21.9316 35.5331 21.2168C35.9315 20.5019 36.131 19.6523 36.131 18.6679C36.131 17.7188 35.9315 16.8867 35.5331 16.1719C35.1464 15.457 34.619 14.9121 33.9512 14.5371C33.2831 14.1504 32.5448 13.957 31.7363 13.957C30.9395 13.957 30.207 14.1679 29.5391 14.5898C28.8828 15 28.3613 15.5684 27.9746 16.2949C27.5879 17.0098 27.3945 17.8008 27.3945 18.6679C27.3945 19.582 27.5938 20.4023 27.9922 21.1289C28.3907 21.8438 28.9238 22.4004 29.5918 22.7988C30.2598 23.1973 30.9863 23.3965 31.7714 23.3965Z" fill="white"/>
<path d="M9.28907 28.3535C7.57814 28.3535 6.06641 28.0488 4.75391 27.4394C3.44141 26.8301 2.4043 25.8516 1.64258 24.5039C0.880859 23.1445 0.5 21.4043 0.5 19.2832V9.5625H5.87891V19.1074C5.87891 21.9434 7.01564 23.3613 9.28907 23.3613C11.5742 23.3613 12.7168 21.9434 12.7168 19.1074V9.5625H18.0781V19.2832C18.0781 21.4043 17.6973 23.1445 16.9356 24.5039C16.1738 25.8516 15.1367 26.8301 13.8242 27.4394C12.5117 28.0488 11 28.3535 9.28907 28.3535Z" fill="white"/>
<path d="M73.2798 21.4658H67.8165V27.0012H73.2798V21.4658Z" fill="white"/>
<path d="M103.444 8.38476C105.683 8.38476 107.37 9.14649 108.507 10.6699C109.655 12.1933 110.23 14.3906 110.23 17.2617V27H106.028V17.3496C106.028 15.6269 105.694 14.3555 105.027 13.5352C104.37 12.7148 103.433 12.3047 102.214 12.3047C101.452 12.3047 100.738 12.5391 100.069 13.0078C99.4016 13.4648 98.8625 14.1094 98.4524 14.9414C98.0537 15.7734 97.8545 16.7168 97.8545 17.7715V27H93.6533V17.3496C93.6533 15.6269 93.3194 14.3555 92.6516 13.5352C91.9952 12.7148 91.0637 12.3047 89.8565 12.3047C89.0948 12.3047 88.3799 12.5391 87.7121 13.0078C87.044 13.4648 86.5049 14.1094 86.0948 14.9414C85.6964 15.7734 85.4972 16.7168 85.4972 17.7715V27H81.296V8.92968H85.2686L85.3214 11.7422C85.802 10.7578 86.5577 9.95508 87.5891 9.33399C88.6202 8.70117 89.7863 8.38476 91.0871 8.38476C92.5871 8.38476 93.8408 8.73048 94.8488 9.42186C95.8565 10.1133 96.6125 11.1269 97.1162 12.4629C97.8782 11.0918 98.792 10.0723 99.8585 9.40431C100.937 8.7246 102.132 8.38476 103.444 8.38476ZM122.306 27.5449C120.712 27.5449 119.265 27.1172 117.964 26.2617C116.663 25.4062 115.644 24.2461 114.905 22.7812C114.167 21.3164 113.798 19.7109 113.798 17.9648C113.798 16.2305 114.167 14.6308 114.905 13.166C115.655 11.7012 116.675 10.541 117.964 9.68556C119.265 8.81835 120.706 8.38476 122.288 8.38476C123.765 8.38476 125.071 8.70702 126.208 9.35157C127.357 9.98436 128.224 10.8633 128.81 11.9883V8.92968H132.853V27H128.81V23.959C128.224 25.084 127.357 25.9629 126.208 26.5957C125.071 27.2285 123.771 27.5449 122.306 27.5449ZM123.325 23.6074C124.298 23.6074 125.189 23.3613 125.997 22.8692C126.817 22.3652 127.462 21.6856 127.931 20.8301C128.4 19.9629 128.634 19.0078 128.634 17.9648C128.634 16.9336 128.394 15.9902 127.913 15.1348C127.444 14.2676 126.806 13.582 125.997 13.0781C125.189 12.5742 124.298 12.3223 123.325 12.3223C122.353 12.3223 121.462 12.5625 120.653 13.043C119.845 13.5117 119.2 14.1738 118.72 15.0293C118.251 15.8848 118.017 16.8633 118.017 17.9648C118.017 19.1016 118.257 20.0977 118.738 20.9531C119.218 21.8086 119.863 22.4648 120.671 22.9219C121.48 23.3789 122.365 23.6074 123.325 23.6074ZM145.913 27.5449C144.155 27.5449 142.562 27.1172 141.132 26.2617C139.714 25.4062 138.601 24.2461 137.792 22.7812C136.984 21.3164 136.579 19.7109 136.579 17.9648C136.579 16.2305 136.984 14.6308 137.792 13.166C138.601 11.7012 139.714 10.541 141.132 9.68556C142.562 8.81835 144.155 8.38476 145.913 8.38476C147.425 8.38476 148.802 8.68359 150.044 9.28125C151.286 9.86718 152.323 10.6875 153.155 11.7422C153.988 12.7852 154.573 13.9746 154.913 15.3106H150.571C150.173 14.3379 149.564 13.5996 148.743 13.0957C147.935 12.5918 146.997 12.3398 145.931 12.3398C145.04 12.3398 144.202 12.5684 143.417 13.0254C142.632 13.4707 141.999 14.1211 141.519 14.9766C141.038 15.832 140.798 16.8281 140.798 17.9648C140.798 19.1133 141.038 20.1152 141.519 20.9707C141.999 21.8144 142.632 22.4648 143.417 22.9219C144.202 23.3789 145.04 23.6074 145.931 23.6074C147.009 23.6074 147.958 23.3438 148.778 22.8164C149.599 22.2773 150.196 21.4688 150.571 20.3906H154.896C154.579 21.7852 154.005 23.0273 153.173 24.1172C152.353 25.1953 151.316 26.0391 150.062 26.6484C148.808 27.2461 147.425 27.5449 145.913 27.5449ZM162.613 2.25V9.61524L162.507 11.6367C163.081 10.6289 163.896 9.8379 164.95 9.26367C166.005 8.67774 167.212 8.38476 168.571 8.38476C170.974 8.38476 172.784 9.14649 174.003 10.6699C175.222 12.1933 175.831 14.3906 175.831 17.2617V27H171.577V17.3496C171.577 15.6152 171.214 14.3438 170.488 13.5352C169.761 12.7148 168.73 12.3047 167.394 12.3047C166.562 12.3047 165.777 12.5391 165.038 13.0078C164.312 13.4648 163.726 14.1094 163.28 14.9414C162.835 15.7734 162.613 16.7168 162.613 17.7715V27H158.359V2.25H162.613ZM180.683 8.92968H184.937V27H180.683V8.92968ZM193.972 8.92968V11.7422C194.499 10.7344 195.314 9.92577 196.415 9.31641C197.528 8.69532 198.771 8.38476 200.142 8.38476C202.544 8.38476 204.355 9.14649 205.573 10.6699C206.792 12.1933 207.402 14.3906 207.402 17.2617V27H203.148V17.3496C203.148 15.6152 202.784 14.3438 202.058 13.5352C201.331 12.7148 200.3 12.3047 198.964 12.3047C198.109 12.3047 197.317 12.5215 196.591 12.9551C195.865 13.3769 195.278 14.0039 194.833 14.8359C194.4 15.6562 194.183 16.6348 194.183 17.7715V27H189.929V8.92968H193.972ZM229.444 17.6484C229.444 18.0469 229.415 18.5273 229.357 19.0898H215.241C215.382 20.0508 215.687 20.8828 216.155 21.5859C216.636 22.2891 217.228 22.8281 217.931 23.2031C218.646 23.5664 219.419 23.7481 220.251 23.7481C221.306 23.7481 222.167 23.543 222.835 23.1328C223.515 22.7109 224.013 22.1074 224.329 21.3223H228.97C228.653 22.4356 228.097 23.4668 227.3 24.416C226.503 25.3652 225.501 26.1269 224.294 26.7012C223.099 27.2637 221.78 27.5449 220.339 27.5449C218.569 27.5449 216.97 27.1172 215.54 26.2617C214.111 25.4062 212.991 24.2461 212.183 22.7812C211.374 21.3164 210.97 19.7109 210.97 17.9648C210.97 16.2187 211.374 14.6133 212.183 13.1484C212.991 11.6836 214.111 10.5234 215.54 9.66798C216.97 8.8125 218.569 8.38476 220.339 8.38476C222.109 8.38476 223.685 8.80665 225.067 9.6504C226.45 10.4941 227.523 11.625 228.284 13.043C229.058 14.4492 229.444 15.9844 229.444 17.6484ZM225.103 15.8027C225.044 15.1348 224.792 14.5195 224.347 13.957C223.902 13.3828 223.321 12.9317 222.607 12.6035C221.903 12.2637 221.142 12.0938 220.321 12.0938C219.185 12.0938 218.165 12.4102 217.263 13.043C216.372 13.6641 215.757 14.584 215.417 15.8027H225.103Z" fill="#E9D7FE"/>
<path d="M184.91 2.39941H180.68V6.68941H184.91V2.39941Z" fill="#E9D7FE"/>
</g>
<defs>
<clipPath id="clip0_1487_148626">
<rect width="231" height="36" fill="white" transform="translate(0.5)"/>
</clipPath>
</defs>
</svg>
