<svg width="198" height="36" viewBox="0 0 198 36" fill="none" xmlns="http://www.w3.org/2000/svg">
<path d="M52.629 28.3535C50.9181 28.3535 49.4064 28.0488 48.0936 27.4394C46.7814 26.8301 45.744 25.8516 44.9823 24.5039C44.2206 23.1445 43.8399 21.4043 43.8399 19.2832V9.5625H49.2186V19.1074C49.2186 21.9434 50.3556 23.3613 52.629 23.3613C54.9141 23.3613 56.0565 21.9434 56.0565 19.1074V9.5625H61.4181V19.2832C61.4181 21.4043 61.0371 23.1445 60.2754 24.5039C59.5137 25.8516 58.4766 26.8301 57.1641 27.4394C55.8516 28.0488 54.3399 28.3535 52.629 28.3535Z" fill="white"/>
<path d="M26.6836 9.5625V11.8652C27.3399 10.9394 28.1543 10.2304 29.127 9.73827C30.0996 9.24609 31.125 9 32.2032 9C33.9024 9 35.4141 9.43359 36.7383 10.3008C38.0742 11.1679 39.1113 12.3398 39.8496 13.8164C40.5996 15.293 40.9746 16.9102 40.9746 18.6679C40.9746 20.4375 40.5996 22.0664 39.8496 23.5547C39.1113 25.0312 38.0802 26.2031 36.756 27.0703C35.4315 27.9375 33.9435 28.3711 32.2911 28.3711C31.1544 28.3711 30.1056 28.1191 29.1445 27.6152C28.1953 27.1113 27.4278 26.4434 26.8418 25.6113L26.9473 27.8086V33.996H21.5332V9.5625H26.6836ZM31.2714 23.3965C32.0565 23.3965 32.7774 23.2148 33.4335 22.8516C34.1016 22.4766 34.6347 21.9316 35.0331 21.2168C35.4315 20.5019 35.631 19.6523 35.631 18.6679C35.631 17.7188 35.4315 16.8867 35.0331 16.1719C34.6464 15.457 34.119 14.9121 33.4512 14.5371C32.7831 14.1504 32.0448 13.957 31.2363 13.957C30.4395 13.957 29.707 14.1679 29.0391 14.5898C28.3828 15 27.8613 15.5684 27.4746 16.2949C27.0879 17.0098 26.8945 17.8008 26.8945 18.6679C26.8945 19.582 27.0938 20.4023 27.4922 21.1289C27.8907 21.8438 28.4238 22.4004 29.0918 22.7988C29.7598 23.1973 30.4863 23.3965 31.2714 23.3965Z" fill="white"/>
<path d="M8.78907 28.3535C7.07814 28.3535 5.56641 28.0488 4.25391 27.4394C2.94141 26.8301 1.9043 25.8516 1.14258 24.5039C0.380859 23.1445 0 21.4043 0 19.2832V9.5625H5.37891V19.1074C5.37891 21.9434 6.51564 23.3613 8.78907 23.3613C11.0742 23.3613 12.2168 21.9434 12.2168 19.1074V9.5625H17.5781V19.2832C17.5781 21.4043 17.1973 23.1445 16.4356 24.5039C15.6738 25.8516 14.6367 26.8301 13.3242 27.4394C12.0117 28.0488 10.5 28.3535 8.78907 28.3535Z" fill="white"/>
<path d="M72.78 21.4658H67.3167V27.0012H72.78V21.4658Z" fill="white"/>
<path d="M84.8391 8.92969V11.9707C85.4952 10.8692 86.3682 10.0019 87.4581 9.36916C88.5597 8.72461 89.7549 8.40235 91.044 8.40235C92.7198 8.40235 94.2258 8.83009 95.5617 9.68557C96.9093 10.541 97.9581 11.7012 98.7081 13.166C99.4698 14.6192 99.8508 16.2188 99.8508 17.9648C99.8508 19.7227 99.4698 21.334 98.7081 22.7988C97.9464 24.2519 96.8976 25.4063 95.5617 26.2617C94.2375 27.1172 92.7492 27.5449 91.0968 27.5449C89.796 27.5449 88.6008 27.2344 87.5109 26.6133C86.421 25.9805 85.5714 25.1367 84.9621 24.082L85.05 26.1738V33.1698H80.796V8.92969H84.8391ZM90.3234 23.625C91.2843 23.625 92.169 23.3965 92.9778 22.9394C93.7863 22.4707 94.4307 21.8086 94.9113 20.9531C95.3916 20.0977 95.6319 19.1016 95.6319 17.9648C95.6319 16.8633 95.3916 15.8848 94.9113 15.0293C94.4424 14.1738 93.798 13.5117 92.9778 13.043C92.169 12.5625 91.2783 12.3223 90.3057 12.3223C89.3448 12.3223 88.4541 12.5742 87.6339 13.0781C86.8254 13.5703 86.1807 14.25 85.7004 15.1172C85.2315 15.9844 84.9972 16.9336 84.9972 17.9648C84.9972 19.043 85.2375 20.0156 85.7178 20.8828C86.1984 21.7383 86.8428 22.4121 87.6516 22.9043C88.4718 23.3848 89.3625 23.625 90.3234 23.625ZM120.769 17.6484C120.769 18.0469 120.74 18.5273 120.681 19.0898H106.566C106.706 20.0508 107.011 20.8828 107.48 21.5859C107.96 22.2891 108.552 22.8281 109.255 23.2031C109.97 23.5664 110.743 23.7481 111.575 23.7481C112.63 23.7481 113.491 23.543 114.159 23.1328C114.839 22.7109 115.337 22.1074 115.653 21.3223H120.294C119.978 22.4356 119.421 23.4668 118.624 24.416C117.827 25.3652 116.825 26.1269 115.618 26.7012C114.423 27.2637 113.105 27.5449 111.663 27.5449C109.894 27.5449 108.294 27.1172 106.865 26.2617C105.435 25.4063 104.316 24.2461 103.507 22.7813C102.698 21.3164 102.294 19.7109 102.294 17.9648C102.294 16.2188 102.698 14.6133 103.507 13.1484C104.316 11.6836 105.435 10.5234 106.865 9.66799C108.294 8.81251 109.894 8.38477 111.663 8.38477C113.433 8.38477 115.009 8.80666 116.392 9.65041C117.775 10.4942 118.847 11.625 119.609 13.043C120.382 14.4492 120.769 15.9844 120.769 17.6484ZM116.427 15.8027C116.368 15.1348 116.116 14.5195 115.671 13.957C115.226 13.3828 114.646 12.9317 113.931 12.6035C113.228 12.2637 112.466 12.0938 111.646 12.0938C110.509 12.0938 109.49 12.4102 108.587 13.043C107.696 13.6641 107.081 14.584 106.741 15.8027H116.427ZM128.327 8.92969V12.1992C128.761 11.1797 129.388 10.3828 130.208 9.8086C131.04 9.22267 132.03 8.92969 133.179 8.92969H135.113V12.5859H133.407C132.435 12.5859 131.579 12.8203 130.841 13.2891C130.103 13.7578 129.528 14.4434 129.118 15.3457C128.708 16.2481 128.503 17.332 128.503 18.5977V27H124.249V8.92969H128.327ZM143.972 27.5449C142.284 27.5449 140.855 27.2519 139.683 26.666C138.511 26.0801 137.638 25.3067 137.064 24.3457C136.49 23.3848 136.202 22.3535 136.202 21.2519L140.28 21.2695C140.316 22.1367 140.65 22.8398 141.282 23.3789C141.927 23.9063 142.835 24.1699 144.007 24.1699C145.073 24.1699 145.876 23.9707 146.415 23.5723C146.954 23.1621 147.224 22.5996 147.224 21.8848C147.224 21.3926 147.083 21 146.802 20.707C146.521 20.4023 146.111 20.168 145.571 20.0039C145.032 19.8398 144.312 19.6875 143.409 19.5469C141.441 19.2891 139.87 18.7266 138.698 17.8594C137.527 16.9922 136.941 15.6914 136.941 13.957C136.941 12.8438 137.204 11.8711 137.732 11.0391C138.259 10.1953 139.032 9.54493 140.052 9.08791C141.071 8.61916 142.302 8.38477 143.743 8.38477C145.185 8.38477 146.456 8.63086 147.558 9.12307C148.659 9.60352 149.515 10.2832 150.124 11.1621C150.734 12.041 151.038 13.0488 151.038 14.1856L146.872 14.1504C146.825 13.459 146.532 12.9082 145.993 12.4981C145.466 12.0762 144.722 11.8652 143.761 11.8652C142.894 11.8652 142.238 12.0527 141.792 12.4277C141.347 12.8027 141.124 13.2832 141.124 13.8692C141.124 14.3379 141.224 14.707 141.423 14.9766C141.622 15.2344 141.986 15.457 142.513 15.6445C143.04 15.8203 143.837 15.9902 144.903 16.1543C146.31 16.3652 147.488 16.6582 148.437 17.0332C149.398 17.4082 150.159 17.9648 150.722 18.7031C151.284 19.4414 151.566 20.4199 151.566 21.6387C151.566 22.9277 151.238 24.0176 150.581 24.9082C149.937 25.7871 149.046 26.4492 147.909 26.8945C146.773 27.3281 145.46 27.5449 143.972 27.5449ZM163.29 27.5449C161.497 27.5449 159.874 27.1172 158.421 26.2617C156.98 25.4063 155.849 24.2519 155.028 22.7988C154.208 21.334 153.798 19.7227 153.798 17.9648C153.798 16.2188 154.208 14.6133 155.028 13.1484C155.849 11.6836 156.98 10.5234 158.421 9.66799C159.874 8.81251 161.503 8.38477 163.308 8.38477C165.124 8.38477 166.759 8.81251 168.212 9.66799C169.665 10.5234 170.802 11.6836 171.622 13.1484C172.442 14.6133 172.853 16.2188 172.853 17.9648C172.853 19.7227 172.442 21.334 171.622 22.7988C170.802 24.2637 169.659 25.4238 168.194 26.2793C166.741 27.1231 165.107 27.5449 163.29 27.5449ZM163.325 23.5898C164.333 23.5898 165.236 23.3496 166.032 22.8692C166.841 22.3887 167.474 21.7207 167.931 20.8652C168.4 20.0098 168.634 19.043 168.634 17.9648C168.634 16.8984 168.4 15.9375 167.931 15.082C167.474 14.2148 166.841 13.541 166.032 13.0606C165.224 12.5684 164.321 12.3223 163.325 12.3223C162.329 12.3223 161.427 12.5684 160.618 13.0606C159.81 13.541 159.171 14.2148 158.702 15.082C158.245 15.9375 158.017 16.8984 158.017 17.9648C158.017 19.043 158.245 20.0098 158.702 20.8652C159.171 21.7207 159.804 22.3887 160.601 22.8692C161.409 23.3496 162.317 23.5898 163.325 23.5898ZM180.605 8.92969V11.7422C181.132 10.7344 181.946 9.92578 183.048 9.31642C184.161 8.69533 185.403 8.38477 186.775 8.38477C189.177 8.38477 190.988 9.1465 192.206 10.6699C193.425 12.1934 194.034 14.3906 194.034 17.2617V27H189.78V17.3496C189.78 15.6152 189.417 14.3438 188.691 13.5352C187.964 12.7148 186.933 12.3047 185.597 12.3047C184.741 12.3047 183.95 12.5215 183.224 12.9551C182.497 13.3769 181.911 14.0039 181.466 14.8359C181.032 15.6563 180.816 16.6348 180.816 17.7715V27H176.562V8.92969H180.605Z" fill="#99F6E0"/>
</svg>
