<svg width="216" height="36" viewBox="0 0 216 36" fill="none" xmlns="http://www.w3.org/2000/svg">
<path d="M52.6289 28.3535C50.918 28.3535 49.4063 28.0488 48.0935 27.4394C46.7813 26.8301 45.7439 25.8516 44.9822 24.5039C44.2205 23.1445 43.8398 21.4043 43.8398 19.2832V9.5625H49.2185V19.1074C49.2185 21.9434 50.3555 23.3613 52.6289 23.3613C54.914 23.3613 56.0564 21.9434 56.0564 19.1074V9.5625H61.418V19.2832C61.418 21.4043 61.037 23.1445 60.2753 24.5039C59.5136 25.8516 58.4765 26.8301 57.164 27.4394C55.8515 28.0488 54.3398 28.3535 52.6289 28.3535Z" fill="white"/>
<path d="M26.6836 9.5625V11.8652C27.3399 10.9394 28.1543 10.2304 29.127 9.73827C30.0996 9.24609 31.125 9 32.2032 9C33.9024 9 35.4141 9.43359 36.7383 10.3008C38.0742 11.1679 39.1113 12.3398 39.8496 13.8164C40.5996 15.293 40.9746 16.9102 40.9746 18.6679C40.9746 20.4375 40.5996 22.0664 39.8496 23.5547C39.1113 25.0312 38.0802 26.2031 36.756 27.0703C35.4315 27.9375 33.9435 28.3711 32.2911 28.3711C31.1544 28.3711 30.1056 28.1191 29.1445 27.6152C28.1953 27.1113 27.4278 26.4434 26.8418 25.6113L26.9473 27.8086V33.996H21.5332V9.5625H26.6836ZM31.2714 23.3965C32.0565 23.3965 32.7774 23.2148 33.4335 22.8516C34.1016 22.4766 34.6347 21.9316 35.0331 21.2168C35.4315 20.5019 35.631 19.6523 35.631 18.6679C35.631 17.7188 35.4315 16.8867 35.0331 16.1719C34.6464 15.457 34.119 14.9121 33.4512 14.5371C32.7831 14.1504 32.0448 13.957 31.2363 13.957C30.4395 13.957 29.707 14.1679 29.0391 14.5898C28.3828 15 27.8613 15.5684 27.4746 16.2949C27.0879 17.0098 26.8945 17.8008 26.8945 18.6679C26.8945 19.582 27.0938 20.4023 27.4922 21.1289C27.8907 21.8438 28.4238 22.4004 29.0918 22.7988C29.7598 23.1973 30.4863 23.3965 31.2714 23.3965Z" fill="white"/>
<path d="M8.78907 28.3535C7.07814 28.3535 5.56641 28.0488 4.25391 27.4394C2.94141 26.8301 1.9043 25.8516 1.14258 24.5039C0.380859 23.1445 0 21.4043 0 19.2832V9.5625H5.37891V19.1074C5.37891 21.9434 6.51564 23.3613 8.78907 23.3613C11.0742 23.3613 12.2168 21.9434 12.2168 19.1074V9.5625H17.5781V19.2832C17.5781 21.4043 17.1973 23.1445 16.4356 24.5039C15.6738 25.8516 14.6367 26.8301 13.3242 27.4394C12.0117 28.0488 10.5 28.3535 8.78907 28.3535Z" fill="white"/>
<path d="M72.7798 21.4658H67.3165V27.0012H72.7798V21.4658Z" fill="white"/>
<path d="M84.8391 8.92968V11.9707C85.4952 10.8692 86.3682 10.0019 87.4581 9.36915C88.5597 8.7246 89.7549 8.40234 91.044 8.40234C92.7198 8.40234 94.2258 8.83008 95.5617 9.68556C96.9093 10.541 97.9581 11.7012 98.7081 13.166C99.4698 14.6192 99.8508 16.2187 99.8508 17.9648C99.8508 19.7227 99.4698 21.334 98.7081 22.7988C97.9464 24.2519 96.8976 25.4062 95.5617 26.2617C94.2375 27.1172 92.7492 27.5449 91.0968 27.5449C89.796 27.5449 88.6008 27.2344 87.5109 26.6133C86.421 25.9805 85.5714 25.1367 84.9621 24.082L85.05 26.1738V33.1698H80.796V8.92968H84.8391ZM90.3234 23.625C91.2843 23.625 92.169 23.3965 92.9778 22.9394C93.7863 22.4707 94.4307 21.8086 94.9113 20.9531C95.3916 20.0977 95.6319 19.1016 95.6319 17.9648C95.6319 16.8633 95.3916 15.8848 94.9113 15.0293C94.4424 14.1738 93.798 13.5117 92.9778 13.043C92.169 12.5625 91.2783 12.3223 90.3057 12.3223C89.3448 12.3223 88.4541 12.5742 87.6339 13.0781C86.8254 13.5703 86.1807 14.25 85.7004 15.1172C85.2315 15.9844 84.9972 16.9336 84.9972 17.9648C84.9972 19.043 85.2375 20.0156 85.7178 20.8828C86.1984 21.7383 86.8428 22.4121 87.6516 22.9043C88.4718 23.3848 89.3625 23.625 90.3234 23.625ZM107.655 8.92968V12.1992C108.089 11.1797 108.716 10.3828 109.536 9.80859C110.368 9.22266 111.359 8.92968 112.507 8.92968H114.441V12.5859H112.736C111.763 12.5859 110.907 12.8203 110.169 13.2891C109.431 13.7578 108.857 14.4433 108.446 15.3457C108.036 16.2481 107.831 17.332 107.831 18.5977V27H103.577V8.92968H107.655ZM125.005 27.5449C123.212 27.5449 121.589 27.1172 120.136 26.2617C118.694 25.4062 117.564 24.2519 116.743 22.7988C115.923 21.334 115.513 19.7227 115.513 17.9648C115.513 16.2187 115.923 14.6133 116.743 13.1484C117.564 11.6836 118.694 10.5234 120.136 9.66798C121.589 8.8125 123.218 8.38476 125.023 8.38476C126.839 8.38476 128.474 8.8125 129.927 9.66798C131.38 10.5234 132.517 11.6836 133.337 13.1484C134.157 14.6133 134.567 16.2187 134.567 17.9648C134.567 19.7227 134.157 21.334 133.337 22.7988C132.517 24.2637 131.374 25.4238 129.909 26.2793C128.456 27.1231 126.821 27.5449 125.005 27.5449ZM125.04 23.5898C126.048 23.5898 126.95 23.3496 127.747 22.8692C128.556 22.3887 129.189 21.7207 129.646 20.8652C130.115 20.0098 130.349 19.043 130.349 17.9648C130.349 16.8984 130.115 15.9375 129.646 15.082C129.189 14.2148 128.556 13.541 127.747 13.0606C126.939 12.5683 126.036 12.3223 125.04 12.3223C124.044 12.3223 123.142 12.5683 122.333 13.0606C121.525 13.541 120.886 14.2148 120.417 15.082C119.96 15.9375 119.732 16.8984 119.732 17.9648C119.732 19.043 119.96 20.0098 120.417 20.8652C120.886 21.7207 121.519 22.3887 122.316 22.8692C123.124 23.3496 124.032 23.5898 125.04 23.5898ZM145.73 27.5449C144.054 27.5449 142.548 27.1231 141.212 26.2793C139.888 25.4238 138.851 24.2637 138.101 22.7988C137.363 21.334 136.993 19.7227 136.993 17.9648C136.993 16.207 137.363 14.6016 138.101 13.1484C138.839 11.6836 139.876 10.5234 141.212 9.66798C142.548 8.8125 144.071 8.38476 145.782 8.38476C146.72 8.38476 147.593 8.55468 148.402 8.89452C149.21 9.22266 149.907 9.6504 150.493 10.1777C151.079 10.7051 151.542 11.2734 151.882 11.8828L151.794 10.0019V2.25H156.03V27H151.988V23.959C151.402 24.9902 150.564 25.8457 149.474 26.5254C148.396 27.2051 147.148 27.5449 145.73 27.5449ZM146.503 23.625C147.476 23.625 148.366 23.3789 149.175 22.8867C149.995 22.3828 150.64 21.6973 151.109 20.8301C151.589 19.9629 151.829 19.0078 151.829 17.9648C151.829 16.9219 151.595 15.9727 151.126 15.1172C150.657 14.25 150.013 13.5703 149.192 13.0781C148.384 12.5742 147.488 12.3223 146.503 12.3223C145.507 12.3223 144.605 12.5683 143.796 13.0606C142.988 13.541 142.349 14.209 141.88 15.0644C141.411 15.9199 141.177 16.8867 141.177 17.9648C141.177 19.0195 141.405 19.9805 141.863 20.8477C142.319 21.7031 142.952 22.3828 143.761 22.8867C144.569 23.3789 145.484 23.625 146.503 23.625ZM169.144 27.5449C167.468 27.5449 165.991 27.2402 164.714 26.6309C163.448 26.0098 162.452 25.0312 161.726 23.6953C160.999 22.3594 160.636 20.6543 160.636 18.5801V8.92968H164.855V18.457C164.855 20.1328 165.212 21.4102 165.927 22.2891C166.653 23.1562 167.72 23.5898 169.126 23.5898C170.532 23.5898 171.593 23.1504 172.308 22.2715C173.023 21.3926 173.38 20.1211 173.38 18.457V8.92968H177.616V18.5801C177.616 20.6543 177.253 22.3594 176.527 23.6953C175.8 25.0195 174.804 25.9922 173.538 26.6133C172.273 27.2344 170.808 27.5449 169.144 27.5449ZM190.273 27.5449C188.515 27.5449 186.921 27.1172 185.491 26.2617C184.073 25.4062 182.96 24.2461 182.152 22.7812C181.343 21.3164 180.939 19.7109 180.939 17.9648C180.939 16.2305 181.343 14.6308 182.152 13.166C182.96 11.7012 184.073 10.541 185.491 9.68556C186.921 8.81835 188.515 8.38476 190.273 8.38476C191.784 8.38476 193.161 8.68359 194.403 9.28125C195.646 9.86718 196.683 10.6875 197.515 11.7422C198.347 12.7852 198.933 13.9746 199.273 15.3106H194.931C194.532 14.3379 193.923 13.5996 193.103 13.0957C192.294 12.5918 191.357 12.3398 190.29 12.3398C189.4 12.3398 188.562 12.5684 187.777 13.0254C186.991 13.4707 186.359 14.1211 185.878 14.9766C185.398 15.832 185.157 16.8281 185.157 17.9648C185.157 19.1133 185.398 20.1152 185.878 20.9707C186.359 21.8144 186.991 22.4648 187.777 22.9219C188.562 23.3789 189.4 23.6074 190.29 23.6074C191.368 23.6074 192.317 23.3438 193.138 22.8164C193.958 22.2773 194.556 21.4688 194.931 20.3906H199.255C198.939 21.7852 198.365 23.0273 197.532 24.1172C196.712 25.1953 195.675 26.0391 194.421 26.6484C193.167 27.2461 191.784 27.5449 190.273 27.5449ZM209.802 27C208.079 27 206.65 26.5254 205.513 25.5762C204.376 24.6152 203.808 22.7988 203.808 20.1269V12.5859H200.064V8.92968H203.808V3.63867L208.062 3.60351V8.92968H213.476V12.5859H208.062V20.3203C208.062 22.418 208.935 23.4668 210.681 23.4668H213.476V27H209.802Z" fill="#FEDF89"/>
</svg>
